# xmcd
#
# Track frame offsets:
#	150
#	15128
#	25030
#	33672
#	45187
#	57184
#	71568
#	82708
#	94591
#	106547
#	117485
#	127364
#	138216
#	154358
#
# Disc length: 2196 seconds
#
# Revision: 0
# Processed by: cddbd v1.5.1PL0 Copyright (c) Steve Scherf et al.
# Submitted via: dBpowerAMP V4.0
#
DISCID=a408920e
DTITLE=Two Hoots and a Holler - Songs Our Vinyl Taugh Us
DYEAR=2004
DGENRE=Country
TTITLE0=We Used to Fuss
TTITLE1=Wild Wild Mind
TTITLE2=Raging Eyes
TTITLE3=I Still Miss Someone
TTITLE4=Someday Someway
TTITLE5=You Got It
TTITLE6=Garbage Man
TTITLE7=I'd Rather be with the Boys
TTITLE8=Sea of Heartbreak
TTITLE9=Wishing
TTITLE10=I Can't Help Falling in Love
TTITLE11=I'll Be There
TTITLE12=Starry Eyes
TTITLE13=Christmas in Jail
EXTD=
EXTT0=
EXTT1=
EXTT2=
EXTT3=
EXTT4=
EXTT5=
EXTT6=
EXTT7=
EXTT8=
EXTT9=
EXTT10=
EXTT11=
EXTT12=
EXTT13=
PLAYORDER=
